# xmcd
#
# Track frame offsets:
#	150
#	20974
#	48084
#	75757
#	94430
#	120652
#	139421
#	155783
#	180722
#	200827
#
# Disc length: 3120 seconds
#
# Revision: 12
# Processed by: cddbd v1.5.2PL0 Copyright (c) Steve Scherf et al.
# Submitted via: Jack! The Knife 20 Magnifico
#
DISCID=8c0c2e0a
DTITLE=Accept - Stalingrad
DYEAR=2012
DGENRE=Metal
TTITLE0=Hung, Drawn And Quartered
TTITLE1=Stalingrad
TTITLE2=Hellfire
TTITLE3=Flash To Bang Time
TTITLE4=Shadow Soldiers
TTITLE5=Revolution
TTITLE6=Against The World
TTITLE7=Twist Of Fate
TTITLE8=The Quick And The Dead
TTITLE9=The Galley
EXTD=Andy Sneap
EXTT0=Hoffmann, Baltes
EXTT1=Hoffmann, Baltes
EXTT2=Hoffmann, Baltes
EXTT3=Hoffmann, Baltes
EXTT4=Hoffmann, Baltes
EXTT5=Hoffmann, Baltes
EXTT6=Hoffmann, Baltes
EXTT7=Hoffmann, Baltes
EXTT8=Hoffmann, Baltes
EXTT9=Hoffmann, Baltes
PLAYORDER=
